<svg width="5212" height="4048" viewBox="0 0 5212 4048" fill="none" xmlns="http://www.w3.org/2000/svg">
<g clip-path="url(#clip0_231_1211)">
<path d="M154.679 195.003H1405.56V201.728H1492.99V208.452H1553.51V215.176H1593.86V221.9H1640.94V228.625H1681.29V235.349H1714.92V242.073H1741.82V248.797H1775.44V255.522H1795.62V262.246H1822.52V268.97H1842.69V275.694H1862.87V282.419H1889.77V289.143H1903.22V295.867H1930.12V302.591H1943.57V309.316H1963.75V316.04H1983.92V322.764H1997.37V329.488H2017.55V336.213H2031V342.937H2044.45V349.661H2064.62V356.385H2078.08V363.11H2091.53V369.834H2104.98V376.558H2118.43V383.282H2131.88V390.007H2138.6V396.731H2152.05V403.455H2165.5V410.179H2178.95V416.904H2192.4V423.628H2199.13V430.352H2212.58V437.076H2226.03V443.801H2232.75V450.525H2246.2V457.249H2259.65V463.973H2266.38V470.698H2273.1V477.422H2286.56V484.146H2293.28V490.87H2306.73V497.595H2313.46V504.319H2320.18V511.043H2333.63V517.767H2340.36V524.492H2353.81V531.216H2360.53V544.664H2367.26V551.389H2373.98V558.113H2387.43V564.837H2394.16V571.561H2400.88V578.286H2407.61V585.01H2414.33V591.734H2421.06V598.458H2427.78V605.183H2434.51V611.907H2441.23V625.355H2454.68V632.08H2461.41V638.804H2468.13V652.252H2474.86V658.977H2481.58V665.701H2488.31V672.425H2495.04V679.149H2501.76V685.874H2508.49V692.598H2515.21V706.047H2521.94V712.771H2528.66V719.495H2535.39V726.219H2542.11V739.668H2548.84V746.392H2555.56V753.116H2562.29V766.565H2569.01V773.289H2575.74V780.013H2582.46V786.738H2589.19V800.186H2595.91V806.91H2602.64V820.359H2609.36V827.083H2616.09V833.807H2622.81V847.256H2629.54V853.98H2636.26V867.429H2642.99V880.877H2649.71V887.601H2656.44V901.05H2663.16V914.498H2669.89V921.223H2676.61V934.671H2683.34V948.12H2690.06V961.568H2696.79V968.292H2703.52V981.741H2710.24V995.189H2716.97V1008.64H2723.69V1022.09H2730.42V1035.53H2737.14V1048.98H2743.87V1062.43H2750.59V1082.6H2757.32V1096.05H2764.04V1116.23H2770.77V1129.67H2777.49V1149.85H2784.22V1163.3H2790.94V1183.47H2797.67V1203.64H2804.39V1223.81H2811.12V1237.26H2817.84V1250.71H2824.57V1270.88H2831.29V1331.4H2838.02V1344.85H2844.74V1365.02H2838.02V1371.75H2831.29V1338.13H2824.57V1324.68H2817.84V1344.85H2811.12V1351.57H2790.94V1344.85H2784.22V1358.3H2777.49V1365.02H2797.67V1371.75H2777.49V1378.47H2770.77V1371.75H2757.32V1378.47H2743.87V1371.75H2737.14V1351.57H2730.42V1358.3H2723.69V1365.02H2730.42V1378.47H2723.69V1391.92H2716.97V1371.75H2703.52V1378.47H2696.79V1371.75H2690.06V1365.02H2683.34V1398.64H2676.61V1412.09H2669.89V1405.37H2663.16V1418.82H2656.44V1425.54H2649.71V1418.82H2629.54V1425.54H2622.81V1418.82H2616.09V1412.09H2636.26V1405.37H2616.09V1391.92H2609.36V1385.2H2595.91V1398.64H2589.19V1405.37H2609.36V1412.09H2602.64V1418.82H2595.91V1425.54H2589.19V1432.27H2582.46V1438.99H2589.19V1445.71H2595.91V1452.44H2575.74V1445.71H2569.01V1459.16H2562.29V1452.44H2542.11V1438.99H2535.39V1432.27H2515.21V1438.99H2528.66V1445.71H2535.39V1479.34H2542.11V1492.78H2521.94V1499.51H2515.21V1506.23H2508.49V1499.51H2501.76V1506.23H2495.04V1499.51H2488.31V1512.96H2495.04V1519.68H2488.31V1533.13H2474.86V1499.51H2468.13V1519.68H2461.41V1526.41H2468.13V1539.85H2461.41V1533.13H2454.68V1546.58H2461.41V1553.3H2468.13V1560.03H2461.41V1573.48H2474.86V1580.2H2468.13V1586.92H2454.68V1573.48H2447.96V1553.3H2441.23V1539.85H2434.51V1526.41H2427.78V1506.23H2421.06V1492.78H2414.33V1479.34H2407.61V1465.89H2400.88V1452.44H2394.16V1432.27H2387.43V1418.82H2380.71V1405.37H2373.98V1391.92H2367.26V1378.47H2360.53V1365.02H2353.81V1351.57H2347.08V1338.13H2340.36V1324.68H2333.63V1311.23H2326.91V1304.5H2320.18V1291.06H2313.46V1277.61H2306.73V1270.88H2300.01V1257.44H2293.28V1243.99H2286.56V1237.26H2279.83V1223.81H2273.1V1217.09H2266.38V1203.64H2259.65V1196.92H2252.93V1190.19H2246.2V1183.47H2239.48V1170.02H2232.75V1163.3H2226.03V1156.57H2219.3V1143.12H2212.58V1136.4H2205.85V1129.67H2199.13V1122.95H2192.4V1109.5H2185.68V1102.78H2178.95V1096.05H2172.23V1089.33H2165.5V1082.6H2158.78V1075.88H2152.05V1069.16H2145.33V1062.43H2138.6V1055.71H2131.88V1048.98H2125.15V1042.26H2118.43V1035.53H2111.7V1028.81H2104.98V1022.09H2098.25V1015.36H2091.53V1008.64H2084.8V1001.91H2078.08V995.189H2071.35V988.465H2057.9V981.741H2051.17V975.017H2044.45V968.292H2037.72V961.568H2024.27V954.844H2017.55V948.12H2010.82V941.395H2004.1V934.671H1990.65V927.947H1983.92V921.223H1970.47V914.498H1963.75V907.774H1950.3V901.05H1943.57V894.326H1936.85V887.601H1923.4V880.877H1909.95V874.153H1903.22V867.429H1889.77V860.704H1876.32V853.98H1862.87V847.256H1849.42V840.532H1842.69V833.807H1829.24V827.083H1815.79V820.359H1795.62V813.635H1782.17V806.91H1768.72V800.186H1748.54V793.462H1735.09V786.738H1714.92V780.013H1694.74V773.289H1674.57V766.565H1647.66V759.841H1627.49V753.116H1600.59V746.392H1566.96V739.668H1540.06V732.944H1499.71V726.219H1459.36V719.495H1405.56V712.771H699.417V3267.99H1398.83V3261.26H1459.36V3254.54H1492.99V3247.81H1533.34V3241.09H1566.96V3234.37H1593.86V3227.64H1620.76V3220.92H1640.94V3214.19H1661.12V3207.47H1688.02V3200.74H1708.19V3194.02H1721.64V3187.3H1741.82V3180.57H1761.99V3173.85H1775.44V3167.12H1788.89V3160.4H1802.34V3153.67H1815.79V3146.95H1829.24V3140.23H1842.69V3133.5H1856.14V3126.78H1869.6V3120.05H1883.05V3113.33H1896.5V3106.6H1909.95V3099.88H1916.67V3093.16H1930.12V3086.43H1936.85V3079.71H1950.3V3072.98H1957.02V3066.26H1970.47V3059.53H1977.2V3052.81H1990.65V3046.09H1997.37V3039.36H2004.1V3032.64H2017.55V3025.91H2024.27V3019.19H2031V3012.47H2044.45V3005.74H2051.17V2999.02H2057.9V2992.29H2064.62V2985.57H2071.35V2978.84H2078.08V2972.12H2091.53V2965.4H2098.25V2958.67H2104.98V2951.95H2111.7V2945.22H2118.43V2938.5H2125.15V2931.77H2131.88V2925.05H2138.6V2918.33H2145.33V2911.6H2152.05V2904.88H2158.78V2898.15H2165.5V2891.43H2172.23V2884.7H2178.95V2871.26H2185.68V2864.53H2192.4V2857.81H2199.13V2851.08H2205.85V2837.63H2212.58V2830.91H2219.3V2824.19H2226.03V2817.46H2232.75V2804.01H2239.48V2797.29H2246.2V2790.56H2252.93V2777.12H2259.65V2770.39H2266.38V2756.94H2273.1V2750.22H2279.83V2736.77H2286.56V2730.05H2293.28V2716.6H2300.01V2709.87H2306.73V2696.43H2313.46V2682.98H2320.18V2676.25H2326.91V2662.8H2333.63V2649.36H2340.36V2635.91H2347.08V2622.46H2353.81V2609.01H2360.53V2595.56H2367.26V2582.11H2373.98V2568.66H2380.71V2555.22H2387.43V2535.04H2394.16V2521.59H2400.88V2501.42H2407.61V2481.25H2414.33V2467.8H2421.06V2447.63H2427.78V2427.46H2434.51V2400.56H2441.23V2380.39H2447.96V2353.49H2454.68V2326.59H2461.41V2292.97H2468.13V2259.35H2474.86V2232.45H2481.58V2185.38H2488.31V2138.31H2495.04V2050.9H2501.76V1983.65H2495.04V1976.93H2501.76V1970.21H2508.49V1983.65H2515.21V1990.38H2521.94V1997.1H2528.66V2003.83H2535.39V2010.55H2542.11V2017.28H2548.84V2024H2555.56V2030.72H2569.01V2037.45H2575.74V2044.17H2582.46V2050.9H2589.19V2057.62H2595.91V2064.35H2609.36V2071.07H2616.09V2077.79H2622.81V2084.52H2636.26V2091.24H2642.99V2097.97H2649.71V2104.69H2656.44V2111.42H2669.89V2118.14H2676.61V2124.86H2690.06V2131.59H2696.79V2138.31H2710.24V2145.04H2716.97V2151.76H2730.42V2158.49H2743.87V2165.21H2750.59V2171.93H2764.04V2178.66H2770.77V2185.38H2784.22V2192.11H2790.94V2198.83H2804.39V2205.55H2811.12V2212.28H2824.57V2219H2838.02V2225.73H2851.47V2232.45H2864.92V2239.18H2878.37V2245.9H2891.82V2252.62H2905.27V2259.35H2918.72V2266.07H2938.9V2272.8H2952.35V2279.52H2965.8V2286.25H2985.97V2292.97H2999.42V2299.69H3012.87V2340.04H3006.15V2373.66H2999.42V2407.28H2992.7V2440.9H2985.97V2467.8H2979.25V2494.7H2972.52V2514.87H2965.8V2535.04H2959.07V2561.94H2952.35V2582.11H2945.62V2602.29H2938.9V2622.46H2932.17V2635.91H2925.45V2656.08H2918.72V2676.25H2912V2689.7H2905.27V2709.87H2898.54V2723.32H2891.82V2743.5H2885.09V2756.94H2878.37V2770.39H2871.64V2790.56H2864.92V2804.01H2858.19V2817.46H2851.47V2830.91H2844.74V2844.36H2838.02V2857.81H2831.29V2871.26H2824.57V2884.7H2817.84V2898.15H2811.12V2911.6H2804.39V2918.33H2797.67V2931.77H2790.94V2945.22H2784.22V2951.95H2777.49V2965.4H2770.77V2978.84H2764.04V2985.57H2757.32V2999.02H2750.59V3005.74H2743.87V3019.19H2737.14V3025.91H2730.42V3039.36H2723.69V3046.09H2716.97V3059.53H2710.24V3066.26H2703.52V3079.71H2696.79V3086.43H2690.06V3093.16H2683.34V3099.88H2676.61V3113.33H2669.89V3120.05H2663.16V3126.78H2656.44V3133.5H2649.71V3146.95H2642.99V3153.67H2636.26V3160.4H2629.54V3167.12H2622.81V3180.57H2616.09V3187.3H2609.36V3194.02H2602.64V3200.74H2595.91V3207.47H2589.19V3214.19H2582.46V3220.92H2575.74V3234.37H2569.01V3241.09H2562.29V3247.81H2555.56V3254.54H2548.84V3261.26H2542.11V3267.99H2535.39V3274.71H2528.66V3281.44H2521.94V3288.16H2515.21V3294.88H2508.49V3301.61H2501.76V3308.33H2495.04V3315.06H2488.31V3321.78H2481.58V3328.51H2468.13V3335.23H2461.41V3341.95H2454.68V3348.68H2447.96V3355.4H2441.23V3362.13H2434.51V3368.85H2427.78V3375.57H2421.06V3382.3H2407.61V3389.02H2400.88V3395.75H2394.16V3402.47H2387.43V3409.2H2373.98V3415.92H2367.26V3422.64H2360.53V3429.37H2353.81V3436.09H2340.36V3442.82H2333.63V3449.54H2320.18V3456.27H2313.46V3462.99H2306.73V3469.71H2293.28V3476.44H2286.56V3483.16H2279.83V3489.89H2266.38V3496.61H2259.65V3503.34H2246.2V3510.06H2232.75V3516.78H2226.03V3523.51H2212.58V3530.23H2205.85V3536.96H2192.4V3543.68H2178.95V3550.41H2172.23V3557.13H2158.78V3563.85H2145.33V3570.58H2131.88V3577.3H2118.43V3584.03H2104.98V3590.75H2091.53V3597.48H2078.08V3604.2H2071.35V3610.92H2051.17V3617.65H2037.72V3624.37H2024.27V3631.1H2010.82V3637.82H1990.65V3644.54H1977.2V3651.27H1963.75V3657.99H1943.57V3664.72H1923.4V3671.44H1909.95V3678.17H1889.77V3684.89H1869.6V3691.61H1856.14V3698.34H1829.24V3705.06H1809.07V3711.79H1782.17V3718.51H1761.99V3725.24H1735.09V3731.96H1708.19V3738.68H1674.57V3745.41H1640.94V3752.13H1600.59V3758.86H1560.24V3765.58H1513.16V3772.31H1439.18V3779.03H1311.41V3785.75H161.404V3779.03H154.679V195.003ZM2421.06 1391.92V1398.64H2414.33V1412.09H2407.61V1405.37H2400.88V1418.82H2407.61V1438.99H2414.33V1445.71H2421.06V1452.44H2414.33V1459.16H2421.06V1465.89H2427.78V1486.06H2434.51V1492.78H2441.23V1479.34H2434.51V1472.61H2447.96V1479.34H2454.68V1486.06H2461.41V1492.78H2468.13V1486.06H2474.86V1465.89H2481.58V1459.16H2474.86V1445.71H2468.13V1459.16H2461.41V1432.27H2468.13V1425.54H2461.41V1391.92H2454.68V1405.37H2441.23V1418.82H2447.96V1425.54H2441.23V1438.99H2434.51V1425.54H2427.78V1418.82H2434.51V1405.37H2427.78V1391.92H2421.06Z" fill="#092B4F"/>
<path d="M2938.9 1304.51L2952.35 1331.4V1351.57H2959.07V1358.3H2965.8V1371.75H2972.52V1385.2H2979.25V1398.64H2985.97V1405.37H2992.7V1418.82H2999.42V1425.54H3006.15V1432.27H3012.87V1438.99H3019.6V1452.44H3026.32V1459.16H3033.05V1465.89H3039.77V1472.61H3046.5V1479.34H3053.22V1486.06H3059.95V1492.78H3066.67V1499.51H3080.12V1506.23H3086.85V1512.96H3093.57V1519.68H3100.3V1526.41H3113.75V1533.13H3120.47V1539.85H3133.93V1546.58H3140.65V1553.3H3154.1V1560.03H3160.83V1566.75H3174.28V1573.48H3187.73V1580.2H3194.45V1586.92H3214.63V1593.65H3228.08V1600.37H3234.8V1607.1H3254.98V1613.82H3268.43V1620.54H3281.88V1627.27H3302.05V1633.99H3315.5V1640.72H3335.68V1647.44H3355.86V1654.17H3369.31V1660.89H3389.48V1667.61H3402.93V1674.34H3423.11V1681.06H3443.28V1687.79H3470.18V1694.51H3490.36V1701.24H3517.26V1707.96H3537.43V1714.68H3557.61V1721.41H3584.51V1728.13H3611.41V1734.86H3631.59V1741.58H3658.49V1748.31H3685.39V1755.03H3712.29V1761.75H3732.46V1768.48H3752.64V1775.2H3779.54V1781.93H3799.72V1788.65H3826.62V1795.38H3846.79V1802.1H3873.69V1808.82H3893.87V1815.55H3920.77V1822.27H3940.94V1829H3961.12V1835.72H3988.02V1842.45H4008.2V1849.17H4028.37V1855.89H4041.82V1862.62H4062V1869.34H4082.17V1876.07H4102.35V1882.79H4122.52V1889.51H4135.97V1896.24H4149.42V1902.96H4169.6V1909.69H4183.05V1916.41H4203.23V1923.14H4216.68V1929.86H4230.13V1936.58H4243.58V1943.31H4257.03V1950.03H4277.2V1956.76H4283.93V1963.48H4304.1V1970.21H4310.83V1976.93H4324.28V1983.65H4337.73V1990.38H4344.45V1997.1H4357.9V2003.83H4371.36V2010.55H4378.08V2017.28H4391.53V2024H4398.26V2030.72H4411.71V2037.45H4425.16V2044.17H4438.61V2050.9H4445.33V2057.62H4452.06V2064.35H4465.51V2071.07H4472.23V2077.79H4478.96V2084.52H4492.41V2091.24H4499.13V2097.97H4505.86V2104.69H4512.58V2111.42H4526.03V2118.14H4532.76V2124.86H4539.48V2131.59H4546.21V2138.31H4552.93V2145.04H4559.66V2151.76H4566.38V2158.48H4573.11V2165.21H4579.84V2171.93H4586.56V2178.66H4593.29V2185.38H4600.01V2192.11H4606.74V2198.83H4613.46V2205.55H4620.19V2212.28H4626.91V2225.73H4633.64V2232.45H4640.36V2239.18H4647.09V2245.9H4653.81V2259.35H4660.54V2266.07H4667.26V2272.8H4673.99V2286.25H4680.71V2292.97H4687.44V2306.42H4694.16V2319.87H4700.89V2326.59H4707.61V2340.04H4714.34V2353.49H4721.06V2366.94H4727.79V2380.39H4734.51V2393.83H4741.24V2407.28H4747.96V2427.46H4754.69V2440.9H4761.41V2461.08H4768.14V2481.25H4774.86V2494.7H4781.59V2514.87H4788.32V2541.77H4795.04V2568.66H4801.77V2595.56H4808.49V2635.91H4815.22V2689.7H4821.94V2925.05H4815.22V2985.57H4808.49V3025.91H4801.77V3059.53H4795.04V3086.43H4788.32V3113.33H4781.59V3133.5H4774.86V3153.67H4768.14V3173.85H4761.41V3194.02H4754.69V3207.47H4747.96V3227.64H4741.24V3241.09H4734.51V3254.54H4727.79V3267.99H4721.06V3281.44H4714.34V3294.88H4707.61V3308.33H4700.89V3315.06H4694.16V3328.5H4687.44V3341.95H4680.71V3348.68H4673.99V3362.13H4667.26V3368.85H4660.54V3382.3H4653.81V3389.02H4647.09V3395.75H4640.36V3409.2H4633.64V3415.92H4626.91V3422.64H4620.19V3429.37H4613.46V3442.82H4606.74V3449.54H4600.01V3456.27H4593.29V3462.99H4586.56V3469.71H4579.84V3476.44H4573.11V3483.16H4566.38V3489.89H4559.66V3496.61H4552.93V3503.34H4546.21V3510.06H4539.48V3516.78H4532.76V3523.51H4526.03V3530.23H4519.31V3536.96H4512.58V3543.68H4505.86V3550.41H4499.13V3557.13H4485.68V3563.85H4478.96V3570.58H4472.23V3577.3H4458.78V3584.03H4452.06V3590.75H4445.33V3597.47H4431.88V3604.2H4425.16V3610.92H4411.71V3617.65H4404.98V3624.37H4398.26V3631.1H4384.81V3637.82H4371.36V3644.54H4364.63V3651.27H4351.18V3657.99H4337.73V3664.72H4324.28V3671.44H4310.83V3678.17H4297.38V3684.89H4283.93V3691.61H4277.2V3698.34H4257.03V3705.06H4243.58V3711.79H4230.13V3718.51H4209.95V3725.24H4196.5V3731.96H4176.33V3738.68H4162.88V3745.41H4142.7V3752.13H4122.52V3758.86H4095.62V3765.58H4075.45V3772.31H4048.55V3779.03H4021.65V3785.75H3988.02V3792.48H3961.12V3799.2H3920.77V3805.93H3880.42V3812.65H3826.62V3819.38H3739.19V3826.1H3557.61V3819.38H3463.46V3812.65H3396.21V3805.93H3342.41V3799.2H3308.78V3792.48H3268.43V3785.75H3234.8V3779.03H3207.9V3772.31H3174.28V3765.58H3147.38V3758.86H3127.2V3752.13H3100.3V3745.41H3080.12V3738.68H3059.95V3731.96H3039.77V3725.24H3019.6V3718.51H2999.42V3711.79H2979.25V3705.06H2965.8V3698.34H2945.62V3691.61H2932.17V3684.89H2911.99V3678.17H2898.54V3671.44H2885.09V3664.72H2871.64V3657.99H2858.19V3651.27H2844.74V3644.54H2831.29V3637.82H2817.84V3631.1H2804.39V3624.37H2790.94V3617.65H2777.49V3610.92H2764.04V3604.2H2750.59V3597.47H2743.87V3590.75H2730.42V3584.03H2716.97V3577.3H2710.24V3570.58H2696.79V3563.85H2683.34V3557.13H2676.61V3550.41H2663.16V3543.68H2656.44V3536.96H2642.99V3530.23H2636.26V3523.51H2622.81V3516.78H2616.09V3510.06H2609.36V3503.34H2595.91V3496.61H2589.19V3489.89H2575.74V3483.16H2569.01V3476.44H2575.74V3469.71H2582.46V3462.99H2595.91V3456.27H2602.64V3449.54H2609.36V3442.82H2616.09V3436.09H2622.81V3429.37H2629.54V3422.64H2636.26V3415.92H2642.99V3409.2H2649.71V3402.47H2656.44V3395.75H2663.16V3389.02H2669.89V3382.3H2676.61V3375.57H2683.34V3368.85H2690.06V3362.13H2696.79V3355.4H2703.51V3348.68H2710.24V3341.95H2716.97V3335.23H2723.69V3328.5H2730.42V3321.78H2737.14V3315.06H2743.87V3308.33H2750.59V3294.88H2757.32V3288.16H2764.04V3281.44H2770.77V3274.71H2777.49V3261.26H2784.22V3254.54H2790.94V3247.81H2797.67V3241.09H2804.39V3227.64H2811.12V3220.92H2817.84V3214.19H2824.57V3200.74H2831.29V3194.02H2838.02V3180.57H2844.74V3173.85H2851.47V3167.12H2858.19V3153.67H2864.92V3146.95H2871.64V3133.5H2878.37V3126.78H2885.09V3113.33H2891.82V3106.6H2898.54V3093.16H2905.27V3086.43H2911.99V3072.98H2918.72V3079.71H2925.45V3086.43H2938.9V3093.16H2945.62V3099.88H2959.07V3106.6H2965.8V3113.33H2979.25V3120.05H2992.7V3126.78H2999.42V3133.5H3012.87V3140.23H3019.6V3146.95H3033.05V3153.67H3046.5V3160.4H3059.95V3167.12H3073.4V3173.85H3086.85V3180.57H3100.3V3187.3H3113.75V3194.02H3127.2V3200.74H3147.38V3207.47H3160.83V3214.19H3174.28V3220.92H3194.45V3227.64H3207.9V3234.37H3228.08V3241.09H3248.25V3247.81H3268.43V3254.54H3288.6V3261.26H3315.5V3267.99H3335.68V3274.71H3362.58V3281.44H3389.48V3288.16H3423.11V3294.88H3463.46V3301.61H3517.26V3308.33H3745.91V3301.61H3813.17V3294.88H3853.52V3288.16H3880.42V3281.44H3900.59V3274.71H3927.49V3267.99H3947.67V3261.26H3967.85V3254.54H3981.3V3247.81H3994.75V3241.09H4014.92V3234.37H4028.37V3227.64H4041.82V3220.92H4055.27V3214.19H4062V3207.47H4075.45V3200.74H4088.9V3194.02H4095.62V3187.3H4102.35V3180.57H4115.8V3173.85H4122.52V3167.12H4129.25V3160.4H4135.97V3153.67H4142.7V3146.95H4149.42V3140.23H4156.15V3133.5H4162.88V3126.78H4169.6V3120.05H4176.33V3113.33H4183.05V3106.6H4189.78V3099.88H4196.5V3086.43H4203.23V3079.71H4209.95V3066.26H4216.68V3052.81H4223.4V3039.36H4230.13V3032.64H4236.85V3012.46H4243.58V2999.02H4250.3V2978.84H4257.03V2951.95H4263.75V2918.33H4270.48V2770.39H4263.75V2730.05H4257.03V2709.87H4250.3V2689.7H4243.58V2669.53H4236.85V2656.08H4230.13V2642.63H4223.4V2629.18H4216.68V2622.46H4209.95V2609.01H4203.23V2595.56H4196.5V2588.84H4189.78V2582.11H4183.05V2568.66H4176.33V2561.94H4169.6V2555.22H4162.88V2548.49H4156.15V2541.77H4149.42V2535.04H4142.7V2521.59H4129.25V2514.87H4122.52V2508.15H4115.8V2487.97H4109.07V2481.25H4102.35V2474.52H4088.9V2467.8H4082.17V2461.08H4075.45V2454.35H4068.72V2447.63H4048.55V2440.9H4041.82V2434.18H4035.1V2427.46H4021.65V2420.73H4014.92V2414.01H4001.47V2407.28H3994.75V2400.56H3981.3V2393.83H3974.57V2387.11H3961.12V2380.39H3947.67V2373.66H3934.22V2366.94H3927.49V2360.21H3914.04V2353.49H3900.59V2346.76H3887.14V2340.04H3880.42V2333.32H3866.97V2326.59H3853.52V2319.87H3840.07V2313.14H3826.62V2306.42H3813.17V2299.69H3799.72V2292.97H3786.27V2286.25H3772.82V2279.52H3759.37V2272.8H3745.91V2266.07H3732.46V2259.35H3719.01V2252.62H3705.56V2245.9H3692.11V2239.18H3678.66V2232.45H3665.21V2225.73H3651.76V2219H3638.31V2212.28H3624.86V2205.55H3618.14V2198.83H3604.69V2192.11H3591.24V2185.38H3577.79V2178.66H3571.06V2171.93H3557.61V2165.21H3544.16V2158.48H3530.71V2151.76H3523.98V2145.04H3510.53V2138.31H3503.81V2131.59H3490.36V2124.86H3483.63V2118.14H3470.18V2111.42H3463.46V2104.69H3450.01V2097.97H3443.28V2091.24H3429.83V2084.52H3423.11V2077.79H3409.66V2071.07H3402.93V2064.35H3396.21V2057.62H3389.48V2050.9H3382.76V2044.17H3376.03V2037.45H3362.58V2030.72H3355.86V2024H3349.13V2017.28H3342.41V2010.55H3335.68V2003.83H3328.95V1997.1H3322.23V1990.38H3315.5V1983.65H3302.05V1976.93H3295.33V1970.21H3288.6V1963.48H3281.88V1956.76H3275.15V1950.03H3268.43V1943.31H3261.7V1936.58H3254.98V1929.86H3248.25V1916.41H3241.53V1909.69H3234.8V1902.96H3228.08V1896.24H3221.35V1889.51H3214.63V1876.07H3207.9V1869.34H3201.18V1862.62H3194.45V1855.89H3187.73V1849.17H3181V1835.72H3174.28V1829H3167.55V1822.27H3160.83V1808.82H3154.1V1802.1H3147.38V1788.65H3140.65V1781.93H3133.93V1775.2H3127.2V1761.75H3120.47V1748.31H3113.75V1741.58H3107.02V1728.13H3100.3V1714.68H3093.57V1707.96H3086.85V1694.51H3080.12V1681.06H3073.4V1667.61H3066.67V1654.17H3059.95V1640.72H3053.22V1627.27H3046.5V1613.82H3039.77V1600.37H3033.05V1580.2H3026.32V1566.75H3019.6V1553.3H3012.87V1539.85H3006.15V1519.68H2999.42V1506.23H2992.7V1492.78H2985.97V1472.61H2979.25V1452.44H2972.52V1432.27H2965.8V1412.09H2959.07V1391.92H2952.35V1378.47H2945.62V1358.3H2938.9V1304.51Z" fill="#092B4F"/>
<path d="M3550.89 154.658H3745.91V161.382H3826.62V168.106H3893.87V174.831H3934.22V181.555H3974.57V188.279H4008.2V195.003H4041.82V201.728H4075.45V208.452H4095.62V215.176H4122.52V221.9H4149.42V228.625H4169.6V235.349H4189.78V242.073H4209.95V248.797H4230.13V255.522H4250.3V262.246H4270.48V268.97H4283.93V275.694H4304.1V282.419H4317.55V289.143H4331V295.867H4351.18V302.591H4364.63V309.316H4378.08V316.04H4391.53V322.764H4404.98V329.488H4418.43V336.213H4431.88V342.937H4445.33V349.661H4458.78V356.385H4472.23V363.11H4485.68V369.834H4492.41V376.558H4505.86V383.282H4519.31V390.007H4526.03V396.731H4539.48V403.455H4552.93V410.179H4559.66V416.904H4573.11V423.628H4579.83V430.352H4593.29V437.076H4600.01V443.801H4613.46V450.525H4620.19V457.249H4633.64V463.973H4640.36V470.698H4647.09V477.422H4660.54V484.146H4667.26V490.87H4673.99V497.595H4687.44V504.319H4694.16V511.043H4700.89V524.492H4694.16V537.94H4687.44V551.389H4680.71V564.837H4673.99V571.561H4667.26V585.01H4660.54V598.458H4653.81V611.907H4647.09V625.355H4640.36V632.08H4633.64V645.528H4626.91V658.977H4620.19V672.425H4613.46V679.15H4606.74V692.598H4600.01V706.047H4593.29V719.495H4586.56V732.944H4579.83V746.392H4573.11V753.116H4566.38V766.565H4559.66V780.013H4552.93V793.462H4546.21V806.91H4539.48V820.359H4532.76V827.083H4526.03V840.532H4519.31V853.98H4512.58V867.429H4505.86V880.877H4499.13V894.326H4492.41V901.05H4485.68V914.498H4478.96V927.947H4472.23V941.395H4465.51V954.844H4458.78V968.292H4452.06V975.017H4438.61V968.292H4431.88V961.568H4418.43V954.844H4411.71V948.12H4398.26V941.395H4391.53V934.671H4384.81V927.947H4378.08V921.223H4364.63V914.498H4357.9V907.774H4344.45V901.05H4337.73V894.326H4331V887.601H4317.55V880.877H4310.83V874.153H4297.38V867.429H4290.65V860.704H4277.2V853.98H4263.75V847.256H4250.3V840.532H4243.58V833.807H4230.13V827.083H4216.68V820.359H4203.23V813.635H4196.5V806.91H4183.05V800.186H4169.6V793.462H4149.42V786.738H4135.97V780.013H4122.52V773.289H4109.07V766.565H4095.62V759.841H4075.45V753.116H4055.27V746.392H4041.82V739.668H4021.65V732.944H4001.47V726.219H3974.57V719.495H3947.67V712.771H3927.49V706.047H3893.87V699.322H3866.97V692.598H3833.34V685.874H3786.27V679.15H3732.46V672.425H3510.53V679.15H3456.73V685.874H3423.11V692.598H3396.21V699.322H3376.03V706.047H3349.13V712.771H3328.95V719.495H3308.78V726.219H3288.6V732.944H3275.15V739.668H3261.7V746.392H3241.53V753.116H3228.08V759.841H3214.63V766.565H3207.9V773.289H3194.45V780.013H3181V786.738H3174.28V793.462H3160.83V800.186H3154.1V806.91H3147.38V813.635H3140.65V820.359H3127.2V827.083H3120.47V833.807H3113.75V840.532H3107.02V847.256H3100.3V853.98H3093.57V860.704H3086.85V867.429H3080.12V874.153H3073.4V880.877H3066.67V894.326H3059.95V901.05H3053.22V907.774H3046.5V921.223H3039.77V934.671H3033.05V941.395H3026.32V954.844H3019.6V968.292H3012.87V981.741H3006.15V995.189H2999.42V1008.64H2992.7V1001.91H2985.97V988.465H2979.25V975.017H2972.52V961.568H2965.8V948.12H2959.07V941.395H2952.35V927.947H2945.62V914.498H2938.9V901.05H2932.17V894.326H2925.45V880.877H2918.72V867.429H2911.99V860.704H2905.27V847.256H2898.54V840.532H2891.82V827.083H2885.09V820.359H2878.37V813.635H2871.64V800.186H2864.92V793.462H2858.19V780.013H2851.47V773.289H2844.74V759.841H2838.02V753.116H2831.29V746.392H2824.57V732.944H2817.84V726.219H2811.12V719.495H2804.39V706.047H2797.67V699.322H2790.94V692.598H2784.22V685.874H2777.49V679.15H2770.77V665.701H2764.04V658.977H2757.32V652.253H2750.59V645.528H2743.87V638.804H2737.14V632.08H2730.42V625.355H2723.69V611.907H2710.24V598.458H2703.51V591.734H2696.79V585.01H2690.06V578.286H2683.34V571.561H2676.61V564.837H2669.89V558.113H2663.16V551.389H2656.44V544.664H2649.71V537.94H2642.99V531.216H2649.71V524.492H2656.44V517.767H2663.16V511.043H2676.61V497.595H2690.06V490.87H2696.79V484.146H2703.51V477.422H2710.24V470.698H2716.97V463.973H2723.69V457.249H2730.42V450.525H2743.87V443.801H2750.59V437.076H2757.32V430.352H2770.77V423.628H2777.49V416.904H2784.22V410.179H2790.94V403.455H2804.39V396.731H2811.12V390.007H2824.57V383.282H2831.29V376.558H2838.02V369.834H2851.47V363.11H2864.92V356.385H2871.64V349.661H2885.09V342.937H2891.82V336.213H2905.27V329.488H2918.72V322.764H2932.17V316.04H2945.62V309.316H2959.07V302.591H2965.8V295.867H2985.97V289.143H2999.42V282.419H3012.87V275.694H3026.32V268.97H3039.77V262.246H3059.95V255.522H3073.4V248.797H3093.57V242.073H3113.75V235.349H3133.93V228.625H3154.1V221.9H3174.28V215.176H3194.45V208.452H3221.35V201.728H3254.98V195.003H3281.88V188.279H3315.5V181.555H3355.86V174.831H3402.93V168.106H3456.73V161.382H3550.89V154.658Z" fill="#092B4F"/>
<path d="M2831.29 1297.78H2838.02V1311.23H2844.74V1331.4H2851.47V1358.3H2858.19V1378.47H2864.92V1398.64H2871.64V1418.82H2878.37V1438.99H2885.09V1459.16H2891.82V1486.06H2898.54V1499.51H2905.27V1519.68H2912V1533.13H2918.72V1546.58H2925.45V1566.75H2932.17V1580.2H2938.9V1600.37H2945.62V1607.1H2952.35V1627.27H2959.07V1640.72H2965.8V1654.17H2972.52V1667.61H2979.25V1681.06H2985.97V1687.79H2992.7V1701.24H2999.42V1714.68H3006.15V1728.13H3012.87V1734.86H3019.6V1748.31H3026.32V1755.03H3033.05V1768.48H3039.77V1781.93H3046.5V1788.65H3053.22V1795.38H3059.95V1808.82H3066.67V1815.55H3073.4V1829H3080.12V1835.72H3086.85V1849.17H3093.57V1855.89H3100.3V1869.34H3107.02V1876.07H3113.75V1882.79H3120.47V1889.52H3127.2V1902.96H3133.93V1909.69H3140.65V1916.41H3147.38V1923.14H3154.1V1929.86H3160.83V1936.58H3167.55V1943.31H3174.28V1950.03H3181V1956.76H3187.73V1970.21H3201.18V1983.65H3207.9V1990.38H3214.63V1997.1H3228.08V2003.83H3234.8V2010.55H3241.53V2017.28H3248.25V2024H3254.98V2030.72H3261.7V2037.45H3268.43V2044.17H3275.15V2050.9H3281.88V2057.62H3295.33V2064.35H3302.05V2071.07H3315.5V2077.79H3322.23V2084.52H3328.95V2091.24H3342.41V2097.97H3349.13V2104.69H3355.86V2111.42H3369.31V2118.14H3382.76V2124.86H3389.48V2131.59H3396.21V2138.31H3409.66V2145.04H3423.11V2151.76H3429.83V2158.49H3436.56V2165.21H3450.01V2171.93H3463.46V2178.66H3476.91V2185.38H3483.63V2192.11H3497.08V2198.83H3503.81V2205.55H3517.26V2212.28H3530.71V2219H3544.16V2225.73H3557.61V2232.45H3571.06V2239.18H3584.51V2245.9H3597.96V2252.62H3604.69V2259.35H3618.14V2266.07H3631.59V2272.8H3645.04V2279.52H3658.49V2286.25H3671.94V2292.97H3685.39V2299.69H3698.84V2306.42H3719.01V2313.14H3732.46V2319.87H3745.91V2326.59H3766.09V2333.32H3792.99V2340.04H3806.44V2346.76H3766.09V2340.04H3739.19V2333.32H3712.29V2326.59H3692.11V2319.87H3665.21V2313.14H3638.31V2306.42H3611.41V2299.69H3584.51V2292.97H3557.61V2286.25H3537.43V2279.52H3510.53V2272.8H3483.63V2266.07H3456.73V2259.35H3436.56V2252.62H3409.66V2245.9H3389.48V2239.18H3362.58V2232.45H3342.41V2225.73H3315.5V2219H3295.33V2212.28H3275.15V2205.55H3248.25V2198.83H3234.8V2192.11H3214.63V2185.38H3194.45V2178.66H3174.28V2171.93H3154.1V2165.21H3140.65V2158.49H3120.47V2151.76H3107.02V2145.04H3086.85V2138.31H3073.4V2131.59H3059.95V2124.86H3039.77V2118.14H3026.32V2111.42H3012.87V2104.69H2992.7V2097.97H2979.25V2091.24H2965.8V2084.52H2952.35V2077.79H2938.9V2071.07H2925.45V2064.35H2912V2057.62H2905.27V2050.9H2891.82V2044.17H2878.37V2037.45H2864.92V2030.72H2858.19V2024H2844.74V2017.28H2838.02V2010.55H2824.57V2003.83H2817.84V1997.1H2804.39V1990.38H2797.67V1983.65H2784.22V1976.93H2777.49V1970.21H2770.77V1963.48H2757.32V1956.76H2750.59V1950.03H2743.87V1943.31H2730.42V1936.58H2723.69V1929.86H2716.97V1923.14H2710.24V1916.41H2703.52V1909.69H2696.79V1902.96H2683.34V1896.24H2676.61V1889.52H2669.89V1882.79H2663.16V1876.07H2656.44V1869.34H2649.71V1862.62H2642.99V1849.17H2636.26V1842.45H2629.54V1835.72H2622.81V1829H2616.09V1822.27H2609.36V1815.55H2602.64V1808.82H2595.91V1802.1H2589.19V1788.65H2582.46V1781.93H2575.74V1775.2H2569.01V1761.75H2562.29V1755.03H2555.56V1748.31H2548.84V1734.86H2542.11V1728.13H2535.39V1714.68H2528.66V1701.24H2521.94V1694.51H2515.21V1681.06H2508.49V1674.34H2501.76V1660.89H2495.04V1647.44H2488.31V1633.99H2481.58V1620.55H2474.86V1613.82H2468.13V1600.37H2461.41V1586.92H2468.13V1580.2H2474.86V1573.48H2461.41V1560.03H2468.13V1553.3H2461.41V1546.58H2454.68V1533.13H2461.41V1539.85H2468.13V1526.41H2461.41V1519.68H2468.13V1499.51H2474.86V1533.13H2488.31V1519.68H2495.04V1512.96H2488.31V1499.51H2495.04V1506.23H2501.76V1499.51H2508.49V1506.23H2515.21V1499.51H2521.94V1492.78H2542.11V1479.34H2535.39V1445.71H2528.66V1438.99H2515.21V1432.27H2535.39V1438.99H2542.11V1452.44H2562.29V1459.16H2569.01V1445.71H2575.74V1452.44H2595.91V1445.71H2589.19V1438.99H2582.46V1432.27H2589.19V1425.54H2595.91V1418.82H2602.64V1412.09H2609.36V1405.37H2589.19V1398.64H2595.91V1385.2H2609.36V1391.92H2616.09V1405.37H2636.26V1412.09H2616.09V1418.82H2622.81V1425.54H2629.54V1418.82H2649.71V1425.54H2656.44V1418.82H2663.16V1405.37H2669.89V1412.09H2676.61V1398.64H2683.34V1365.02H2690.06V1371.75H2696.79V1378.47H2703.52V1371.75H2716.97V1391.92H2723.69V1378.47H2730.42V1365.02H2723.69V1358.3H2730.42V1351.57H2737.14V1371.75H2743.87V1378.47H2757.32V1371.75H2770.77V1378.47H2777.49V1371.75H2797.67V1365.02H2777.49V1358.3H2784.22V1344.85H2790.94V1351.57H2811.12V1344.85H2817.84V1324.68H2824.57V1338.13H2831.29V1371.75H2838.02V1365.02H2844.74V1344.85H2838.02V1331.4H2831.29V1297.78Z" fill="#125F79"/>
<path d="M1566.96 934.671H1593.86V941.395H1614.04V948.12H1640.94V954.844H1667.84V961.568H1688.02V968.292H1701.47V975.017H1714.92V981.741H1735.09V988.465H1748.54V995.189H1768.72V1001.91H1775.44V1008.64H1788.89V1015.36H1802.34V1022.09H1809.07V1028.81H1822.52V1035.53H1835.97V1042.26H1849.42V1048.98H1856.14V1055.71H1869.59V1062.43H1876.32V1069.16H1889.77V1075.88H1896.5V1082.6H1903.22V1089.33H1916.67V1096.05H1923.4V1102.78H1930.12V1109.5H1943.57V1116.23H1950.3V1122.95H1957.02V1129.67H1963.75V1136.4H1970.47V1143.12H1977.2V1149.85H1983.92V1156.57H1990.65V1163.3H1997.37V1170.02H2004.1V1176.74H2010.82V1183.47H2017.55V1190.19H2024.27V1196.92H2031V1203.64H2037.72V1210.37H2044.45V1217.09H2051.17V1223.81H2057.9V1230.54H2064.62V1243.99H2071.35V1250.71H2078.07V1257.44H2084.8V1264.16H2091.53V1270.88H2098.25V1284.33H2104.98V1291.06H2111.7V1297.78H2118.43V1311.23H2125.15V1317.95H2131.88V1331.4H2138.6V1338.13H2145.33V1351.57H2152.05V1358.3H2158.78V1371.75H2165.5V1385.2H2172.23V1391.92H2178.95V1405.37H2185.68V1418.82H2192.4V1432.27H2199.13V1445.71H2205.85V1459.16H2212.58V1472.61H2219.3V1486.06H2226.03V1506.23H2232.75V1519.68H2239.48V1539.85H2246.2V1553.3H2252.93V1580.2H2259.65V1600.37H2266.38V1620.54H2273.1V1633.99H2279.83V1654.17H2286.55V1681.06H2293.28V1714.68H2300.01V1755.03H2306.73V1788.65H2313.46V1842.45H2320.18V1936.58H2326.91V2037.45H2320.18V2131.59H2313.46V2178.66H2306.73V2225.73H2300.01V2259.35H2293.28V2286.25H2286.55V2313.14H2279.83V2333.32H2273.1V2360.21H2266.38V2373.66H2259.65V2393.83H2252.93V2414.01H2246.2V2434.18H2239.48V2454.35H2232.75V2467.8H2226.03V2481.25H2219.3V2501.42H2212.58V2514.87H2205.85V2528.32H2199.13V2548.49H2192.4V2555.22H2185.68V2568.66H2178.95V2582.11H2172.23V2595.56H2165.5V2602.29H2158.78V2615.73H2152.05V2629.18H2145.33V2635.91H2138.6V2649.36H2131.88V2656.08H2125.15V2669.53H2118.43V2682.98H2111.7V2689.7H2104.98V2696.43H2098.25V2709.87H2091.53V2716.6H2084.8V2723.32H2078.07V2730.05H2071.35V2736.77H2064.62V2750.22H2057.9V2756.94H2051.17V2763.67H2044.45V2770.39H2037.72V2777.12H2031V2783.84H2024.27V2790.56H2017.55V2797.29H2010.82V2804.01H2004.1V2810.74H1997.37V2817.46H1990.65V2824.19H1983.92V2830.91H1970.47V2844.36H1957.02V2851.08H1950.3V2857.81H1943.57V2864.53H1936.85V2871.26H1930.12V2877.98H1916.67V2884.7H1909.95V2891.43H1903.22V2898.15H1889.77V2904.88H1883.04V2911.6H1869.59V2918.33H1862.87V2925.05H1849.42V2931.77H1842.69V2938.5H1829.24V2945.22H1815.79V2951.95H1809.07V2958.67H1795.62V2965.4H1782.17V2972.12H1768.72V2978.84H1755.27V2985.57H1741.82V2992.29H1728.37V2999.02H1714.92V3005.74H1694.74V3012.47H1681.29V3019.19H1661.11V3025.91H1640.94V3032.64H1620.76V3039.36H1600.59V3046.09H1573.69V3039.36H1580.41V3032.64H1593.86V3025.91H1607.31V3019.19H1620.76V3012.47H1627.49V3005.74H1640.94V2999.02H1654.39V2992.29H1661.11V2985.57H1674.56V2978.84H1681.29V2972.12H1688.02V2965.4H1701.47V2958.67H1708.19V2951.95H1721.64V2945.22H1728.37V2938.5H1735.09V2931.77H1741.82V2925.05H1755.27V2911.6H1768.72V2904.88H1775.44V2898.15H1782.17V2891.43H1788.89V2884.7H1795.62V2877.98H1802.34V2871.26H1809.07V2864.53H1815.79V2857.81H1822.52V2844.36H1835.97V2830.91H1842.69V2824.19H1849.42V2817.46H1856.14V2810.74H1862.87V2804.01H1869.59V2790.56H1876.32V2783.84H1883.04V2777.12H1889.77V2763.67H1896.5V2756.94H1903.22V2750.22H1909.95V2736.77H1916.67V2730.05H1923.4V2716.6H1930.12V2709.87H1936.85V2696.43H1943.57V2682.98H1950.3V2676.25H1957.02V2662.8H1963.75V2649.36H1970.47V2642.63H1977.2V2629.18H1983.92V2615.73H1990.65V2602.29H1997.37V2588.84H2004.1V2575.39H2010.82V2555.22H2017.55V2548.49H2024.27V2528.32H2031V2514.87H2037.72V2494.7H2044.45V2481.25H2051.17V2461.08H2057.9V2440.9H2064.62V2420.73H2071.35V2400.56H2078.07V2373.66H2084.8V2353.49H2091.53V2326.59H2098.25V2292.97H2104.98V2252.62H2111.7V2212.28H2118.43V2151.76H2125.15V2077.79H2131.88V1896.24H2125.15V1822.27H2118.43V1775.2H2111.7V1728.13H2104.98V1687.79H2098.25V1660.89H2091.53V1627.27H2084.8V1607.1H2078.07V1586.92H2071.35V1566.75H2064.62V1539.85H2057.9V1526.41H2051.17V1499.51H2044.45V1486.06H2037.72V1472.61H2031V1459.16H2024.27V1438.99H2017.55V1425.54H2010.82V1405.37H2004.1V1391.92H1997.37V1378.47H1990.65V1371.75H1983.92V1358.3H1977.2V1344.85H1970.47V1331.4H1963.75V1317.95H1957.02V1311.23H1950.3V1297.78H1943.57V1284.33H1936.85V1277.61H1930.12V1264.16H1923.4V1257.44H1916.67V1243.99H1909.95V1237.26H1903.22V1223.81H1896.5V1217.09H1889.77V1203.64H1883.04V1196.92H1876.32V1190.19H1869.59V1183.47H1862.87V1170.02H1856.14V1163.3H1849.42V1156.57H1842.69V1149.85H1835.97V1136.4H1822.52V1122.95H1809.07V1109.5H1795.62V1096.05H1782.17V1082.6H1768.72V1069.16H1755.27V1062.43H1748.54V1055.71H1741.82V1048.98H1735.09V1042.26H1721.64V1035.53H1714.92V1028.81H1708.19V1022.09H1694.74V1015.36H1688.02V1008.64H1674.56V1001.91H1667.84V995.189H1654.39V988.465H1647.66V981.741H1634.21V975.017H1620.76V968.292H1607.31V961.568H1593.86V954.844H1587.14V948.12H1573.69V941.395H1566.96V934.671Z" fill="#38B6BC"/>
<path d="M2360.53 537.94H2373.98V544.664H2380.71V551.389H2394.16V558.113H2407.61V564.837H2414.33V571.561H2421.06V578.286H2427.78V585.01H2441.23V591.734H2447.96V598.458H2454.68V605.183H2468.13V611.907H2474.86V618.631H2481.58V625.355H2488.31V632.08H2495.03V638.804H2501.76V645.528H2508.49V652.252H2521.94V658.977H2528.66V665.701H2535.39V672.425H2542.11V679.149H2548.84V685.874H2555.56V692.598H2562.29V699.322H2569.01V706.047H2575.74V712.771H2582.46V726.219H2589.19V732.944H2595.91V739.668H2602.64V746.392H2609.36V753.116H2616.09V759.841H2622.81V766.565H2629.54V773.289H2636.26V780.013H2642.99V793.462H2649.71V800.186H2656.44V806.91H2663.16V813.635H2669.89V820.359H2676.61V833.807H2683.34V840.532H2690.06V847.256H2696.79V860.704H2703.51V867.429H2710.24V874.153H2716.97V880.877H2723.69V894.326H2730.42V901.05H2737.14V914.498H2743.87V921.223H2750.59V934.671H2757.32V948.12H2764.04V954.844H2770.77V968.292H2777.49V975.017H2784.22V988.465H2790.94V1001.91H2797.67V1008.64H2804.39V1022.09H2811.12V1035.53H2817.84V1048.98H2824.57V1062.43H2831.29V1069.16H2838.02V1082.6H2844.74V1096.05H2851.47V1116.23H2858.19V1129.67H2864.92V1143.12H2871.64V1163.3H2878.37V1176.74H2885.09V1190.19H2891.82V1203.64H2898.54V1223.81H2905.27V1243.99H2911.99V1250.71H2918.72V1270.88H2925.45V1284.33H2932.17V1304.5H2938.9V1317.95V1324.68V1331.4V1358.3H2945.62V1378.47H2952.35V1391.92H2959.07V1412.09H2965.8V1432.27H2972.52V1452.44H2979.25V1472.61H2985.97V1492.78H2992.7V1506.23H2999.42V1519.68H3006.15V1539.85H3012.87V1553.3H3019.6V1566.75H3026.32V1580.2H3033.05V1600.37H3039.77V1613.82H3046.5V1627.27H3053.22V1640.72H3059.95V1654.17H3066.67V1667.61H3073.4V1681.06H3080.12V1694.51H3086.85V1707.96H3093.57V1714.68H3100.3V1728.13H3107.02V1741.58H3113.75V1748.31H3120.47V1761.75H3127.2V1775.2H3133.93V1781.93H3140.65V1788.65H3147.38V1802.1H3154.1V1808.82H3160.83V1822.27H3167.55V1829H3174.28V1835.72H3181V1849.17H3187.73V1855.89H3194.45V1862.62H3201.18V1869.34H3207.9V1876.07H3214.63V1889.51H3221.35V1896.24H3228.08V1902.96H3234.8V1909.69H3241.53V1916.41H3248.25V1929.86H3254.98V1936.58H3261.7V1943.31H3268.43V1950.03H3275.15V1956.76H3281.88V1963.48H3288.6V1970.21H3295.33V1976.93H3302.05V1983.65H3315.5V1990.38H3322.23V1997.1H3328.95V2003.83H3335.68V2010.55H3342.41V2017.28H3349.13V2024H3355.86V2030.72H3362.58V2037.45H3376.03V2044.17H3382.76V2050.9H3389.48V2057.62H3396.21V2064.35H3402.93V2071.07H3409.66V2077.79H3423.11V2084.52H3429.83V2091.24H3443.28V2097.97H3450.01V2104.69H3463.46V2111.42H3470.18V2118.14H3483.63V2124.86H3490.36V2131.59H3503.81V2138.31H3510.53V2145.04H3523.98V2151.76H3530.71V2158.49H3544.16V2165.21H3557.61V2171.93H3571.06V2178.66H3577.79V2185.38H3591.24V2192.11H3604.69V2198.83H3618.14V2205.55H3624.86V2212.28H3638.31V2219H3651.76V2225.73H3665.21V2232.45H3678.66V2239.18H3692.11V2245.9H3705.56V2252.62H3719.01V2259.35H3732.46V2266.07H3745.91V2272.8H3759.37V2279.52H3772.82V2286.25H3786.27V2292.97H3799.72V2299.69H3813.17V2306.42H3826.62V2313.14H3840.07V2319.87H3853.52V2326.59H3866.97V2333.32H3880.42V2340.04H3887.14V2346.76H3900.59V2353.49H3914.04V2360.21H3927.49V2366.94H3934.22V2373.66H3947.67V2380.39H3961.12V2387.11H3974.57V2393.83H3981.3V2400.56H3994.75V2407.28H4001.47V2414.01H4014.92V2420.73H4021.65V2427.46H4035.1V2434.18H4041.82V2440.9H4048.55V2447.63H4068.72V2454.35H4075.45V2461.08H4082.17V2467.8H4088.9V2474.52H4102.35V2481.25H4109.07V2487.97H4115.8V2501.42H4109.07V2494.7H4095.62V2487.97H4088.9V2481.25H4075.45V2474.52H4062V2467.8H4055.27V2461.08H4041.82V2454.35H4035.1V2447.63H4021.65V2440.9H4008.2V2434.18H3994.75V2427.46H3981.3V2420.73H3967.85V2414.01H3954.39V2407.28H3934.22V2400.56H3920.77V2393.83H3907.32V2387.11H3887.14V2380.39H3873.69V2373.66H3853.52V2366.94H3833.34V2360.21H3813.17V2353.49H3786.27V2346.76H3806.44V2340.04H3792.99V2333.32H3766.09V2326.59H3745.91V2319.87H3732.46V2313.14H3719.01V2306.42H3698.84V2299.69H3685.39V2292.97H3671.94V2286.25H3658.49V2279.52H3645.04V2272.8H3631.59V2266.07H3618.14V2259.35H3604.69V2252.62H3597.96V2245.9H3584.51V2239.18H3571.06V2232.45H3557.61V2225.73H3544.16V2219H3530.71V2212.28H3517.26V2205.55H3503.81V2198.83H3497.08V2192.11H3483.63V2185.38H3476.91V2178.66H3463.46V2171.93H3450.01V2165.21H3436.56V2158.49H3429.83V2151.76H3423.11V2145.04H3409.66V2138.31H3396.21V2131.59H3389.48V2124.86H3382.76V2118.14H3369.31V2111.42H3355.86V2104.69H3349.13V2097.97H3342.41V2091.24H3328.95V2084.52H3322.23V2077.79H3315.5V2071.07H3302.05V2064.35H3295.33V2057.62H3281.88V2050.9H3275.15V2044.17H3268.43V2037.45H3261.7V2030.72H3254.98V2024H3248.25V2017.28H3241.53V2010.55H3234.8V2003.83H3228.08V1997.1H3214.63V1990.38H3207.9V1983.65H3201.18V1970.21H3187.73V1956.76H3181V1950.03H3174.28V1943.31H3167.55V1936.58H3160.83V1929.86H3154.1V1923.14H3147.38V1916.41H3140.65V1909.69H3133.93V1902.96H3127.2V1889.51H3120.47V1882.79H3113.75V1876.07H3107.02V1869.34H3100.3V1855.89H3093.57V1849.17H3086.85V1835.72H3080.12V1829H3073.4V1815.55H3066.67V1808.82H3059.95V1795.38H3053.22V1788.65H3046.5V1781.93H3039.77V1768.48H3033.05V1755.03H3026.32V1748.31H3019.6V1734.86H3012.87V1728.13H3006.15V1714.68H2999.42V1701.24H2992.7V1687.79H2985.97V1681.06H2979.25V1667.61H2972.52V1654.17H2965.8V1640.72H2959.07V1627.27H2952.35V1607.1H2945.62V1600.37H2938.9V1580.2H2932.17V1566.75H2925.45V1546.58H2918.72V1533.13H2911.99V1519.68H2905.27V1499.51H2898.54V1486.06H2891.82V1459.16H2885.09V1438.99H2878.37V1418.82H2871.64V1398.64H2864.92V1378.47H2858.19V1358.3H2851.47V1331.4H2844.74V1311.23H2838.02V1297.78H2831.29V1270.88H2824.57V1250.71H2817.84V1237.26H2811.12V1223.81H2804.39V1203.64H2797.67V1183.47H2790.94V1163.3H2784.22V1149.85H2777.49V1129.67H2770.77V1116.23H2764.04V1096.05H2757.32V1082.6H2750.59V1062.43H2743.87V1048.98H2737.14V1035.53H2730.42V1022.09H2723.69V1008.64H2716.97V995.189H2710.24V981.741H2703.51V968.292H2696.79V961.568H2690.06V948.12H2683.34V934.671H2676.61V921.223H2669.89V914.498H2663.16V901.05H2656.44V887.601H2649.71V880.877H2642.99V867.429H2636.26V853.98H2629.54V847.256H2622.81V833.807H2616.09V827.083H2609.36V820.359H2602.64V806.91H2595.91V800.186H2589.19V786.738H2582.46V780.013H2575.74V773.289H2569.01V766.565H2562.29V753.116H2555.56V746.392H2548.84V739.668H2542.11V726.219H2535.39V719.495H2528.66V712.771H2521.94V706.047H2515.21V692.598H2508.49V685.874H2501.76V679.149H2495.03V672.425H2488.31V665.701H2481.58V658.977H2474.86V652.252H2468.13V638.804H2461.41V632.08H2454.68V625.355H2441.23V611.907H2434.51V605.183H2427.78V598.458H2421.06V591.734H2414.33V585.01H2407.61V578.286H2400.88V571.561H2394.16V564.837H2387.43V558.113H2373.98V551.389H2367.26V544.664H2360.53V537.94Z" fill="#36B4BA"/>
<path d="M2421.06 1391.92H2427.78V1405.37H2434.51V1418.82H2427.78V1425.54H2434.51V1438.99H2441.23V1425.54H2447.96V1418.82H2441.23V1405.37H2454.68V1391.92H2461.41V1425.54H2468.13V1432.27H2461.41V1459.16H2468.13V1445.71H2474.86V1459.16H2481.58V1465.89H2474.86V1486.06H2468.13V1492.78H2461.41V1486.06H2454.68V1479.34H2447.96V1472.61H2434.51V1479.34H2441.23V1492.78H2434.51V1486.06H2427.78V1465.89H2421.06V1459.16H2414.33V1452.44H2421.06V1445.71H2414.33V1438.99H2407.61V1418.82H2400.88V1405.37H2407.61V1412.09H2414.33V1398.64H2421.06V1391.92Z" fill="#092B4F"/>
</g>
<defs>
<clipPath id="clip0_231_1211">
<rect width="5212" height="4048" fill="white"/>
</clipPath>
</defs>
</svg>
