<svg width="1295" height="1317" viewBox="0 0 1295 1317" fill="none" xmlns="http://www.w3.org/2000/svg">
<path d="M642.374 398.984H645.791V406.046H649.208V416.638H652.625V430.761H656.042V441.354H659.459V451.946H662.876V462.539H666.293V473.131H669.71V483.724H673.126V497.847H676.543V504.909H679.96V515.501H683.377V522.563H686.794V529.625H690.211V540.217H693.628V547.279H697.045V557.871H700.462V561.402H703.878V571.995H707.295V579.056H710.712V586.118H714.129V593.18H717.546V600.241H720.963V603.772H724.38V610.834H727.797V617.895H731.214V624.957H734.63V628.488H738.047V635.55H741.464V639.08H744.881V646.142H748.298V653.204H751.715V656.735H755.132V660.265H758.549V667.327H761.965V670.858H765.382V677.92H768.799V681.45H772.216V688.512H775.633V692.043H779.05V699.105H782.467V702.635H785.884V706.166H789.301V709.697H792.717V716.759H796.134V720.289H799.551V723.82H802.968V727.351H806.385V730.882H809.802V734.413H813.219V737.944H816.636V741.474H820.053V745.005H823.469V752.067H830.303V759.129H833.72V762.659H837.137V766.19H843.971V769.721H847.388V773.252H850.805V776.783H854.221V780.314H857.638V783.844H861.055V787.375H864.472V790.906H867.889V794.437H871.306V797.968H878.14V801.499H881.557V805.029H888.39V808.56H891.807V812.091H895.224V815.622H902.058V819.153H905.475V822.684H908.892V826.214H915.725V829.745H922.559V833.276H925.976V836.807H929.393V840.338H936.227V843.869H943.06V847.399H946.477V850.93H949.894V854.461H956.728V857.992H963.562V861.523H970.396V865.054H973.812V868.584H980.646V872.115H984.063V875.646H990.897V879.177H997.731V882.708H1004.56V886.239H1011.4V889.769H1018.23V893.3H1025.07V896.831H1031.9V900.362H1035.32V903.893H1042.15V907.424H1048.98V910.954H1055.82V914.485H1062.65V918.016H1069.49V921.547H1076.32V925.078H1083.15V928.609H1093.4V932.139H1100.24V935.67H1107.07V939.201H1117.32V942.732H1130.99V946.263H1137.82V949.794H1117.32V946.263H1103.65V942.732H1089.99V939.201H1079.74V935.67H1066.07V932.139H1052.4V928.609H1038.73V925.078H1025.07V921.547H1011.4V918.016H1001.15V914.485H987.48V910.954H973.812V907.424H960.145V903.893H949.894V900.362H936.227V896.831H925.976V893.3H912.308V889.769H902.058V886.239H888.39V882.708H878.14V879.177H867.889V875.646H854.221V872.115H847.388V868.584H837.137V865.054H826.886V861.523H816.636V857.992H806.385V854.461H799.551V850.93H789.301V847.399H782.467V843.869H772.216V840.338H765.382V836.807H758.549V833.276H748.298V829.745H741.464V826.214H734.63V822.684H724.38V819.153H717.546V815.622H710.712V812.091H703.878V808.56H697.045V805.029H690.211V801.499H683.377V797.968H679.96V794.437H673.126V790.906H666.293V787.375H659.459V783.844H656.042V780.314H649.208V776.783H645.791V773.252H638.958V769.721H635.541V766.19H628.707V762.659H625.29V759.129H618.456V755.598H615.039V752.067H611.622V748.536H604.789V745.005H601.372V741.474H597.955V737.944H591.121V734.413H587.704V730.882H584.287V727.351H580.87V723.82H577.454V720.289H574.037V716.759H567.203V713.228H563.786V709.697H560.369V706.166H556.952V702.635H553.535V699.105H550.119V695.574H546.702V688.512H543.285V684.981H539.868V681.45H536.451V677.92H533.034V674.389H529.617V670.858H526.2V667.327H522.783V663.796H519.367V656.735H515.95V653.204H512.533V649.673H509.116V642.611H505.699V639.08H502.282V635.55H498.865V628.488H495.448V624.957H492.031V617.895H488.615V610.834H485.198V607.303H481.781V600.241H478.364V596.71H474.947V589.649H471.53V582.587H468.113V575.525H464.696V568.464H461.279V564.933H457.863V557.871H454.446V550.81H457.863V547.279H461.279V543.748H454.446V536.686H457.863V533.155H454.446V529.625H451.029V522.563H454.446V526.094H457.863V519.032H454.446V515.501H457.863V504.909H461.279V522.563H468.113V515.501H471.53V511.97H468.113V504.909H471.53V508.44H474.947V504.909H478.364V508.44H481.781V504.909H485.198V501.378H495.448V494.316H492.031V476.662H488.615V473.131H481.781V469.601H492.031V473.131H495.448V480.193H505.699V483.724H509.116V476.662H512.533V480.193H522.783V476.662H519.367V473.131H515.95V469.601H519.367V466.07H522.783V462.539H526.2V459.008H529.617V455.477H519.367V451.946H522.783V444.885H529.617V448.416H533.034V455.477H543.285V459.008H533.034V462.539H536.451V466.07H539.868V462.539H550.119V466.07H553.535V462.539H556.952V455.477H560.369V459.008H563.786V451.946H567.203V434.292H570.62V437.823H574.037V441.354H577.454V437.823H584.287V448.416H587.704V441.354H591.121V434.292H587.704V430.761H591.121V427.231H594.538V437.823H597.955V441.354H604.789V437.823H611.622V441.354H615.039V437.823H625.29V434.292H615.039V430.761H618.456V423.7H621.873V427.231H632.124V423.7H635.541V413.107H638.958V420.169H642.374V437.823H645.791V434.292H649.208V423.7H645.791V416.638H642.374V398.984Z" fill="#125F79"/>
<path d="M0 208.319H13.6675V211.85H23.9182V215.381H37.5858V218.912H51.2533V222.442H61.504V225.973H68.3377V229.504H75.1715V233.035H85.4222V236.566H92.2559V240.097H102.507V243.627H105.923V247.158H112.757V250.689H119.591V254.22H123.008V257.751H129.842V261.282H136.675V264.812H143.509V268.343H146.926V271.874H153.76V275.405H157.177V278.936H164.011V282.467H167.427V285.997H170.844V289.528H177.678V293.059H181.095V296.59H184.512V300.121H191.346V303.652H194.763V307.182H198.179V310.713H201.596V314.244H205.013V317.775H208.43V321.306H211.847V324.837H215.264V328.367H218.681V331.898H222.098V335.429H225.515V338.96H228.931V342.491H232.348V346.021H235.765V349.552H239.182V353.083H242.599V356.614H246.016V360.145H249.433V363.676H252.85V370.737H256.266V374.268H259.683V377.799H263.1V381.33H266.517V384.861H269.934V391.922H273.351V395.453H276.768V398.984H280.185V406.046H283.602V409.576H287.018V416.638H290.435V420.169H293.852V427.231H297.269V430.761H300.686V437.823H304.103V444.885H307.52V448.416H310.937V455.477H314.354V462.539H317.77V469.601H321.187V476.662H324.604V483.724H328.021V490.786H331.438V497.847H334.855V508.44H338.272V515.501H341.689V526.094H345.106V533.156H348.522V547.279H351.939V557.871H355.356V568.464H358.773V575.526H362.19V586.118H365.607V600.241H369.024V617.895H372.441V639.08H375.858V656.735H379.274V684.981H382.691V734.413H386.108V787.375H382.691V836.807H379.274V861.523H375.858V886.239H372.441V903.893H369.024V918.016H365.607V932.139H362.19V942.732H358.773V956.855H355.356V963.917H351.939V974.509H348.522V985.102H345.106V995.694H341.689V1006.29H338.272V1013.35H334.855V1020.41H331.438V1031H328.021V1038.06H324.604V1045.13H321.187V1055.72H317.77V1059.25H314.354V1066.31H310.937V1073.37H307.52V1080.43H304.103V1083.97H300.686V1091.03H297.269V1098.09H293.852V1101.62H290.435V1108.68H287.018V1112.21H283.602V1119.27H280.185V1126.34H276.768V1129.87H273.351V1133.4H269.934V1140.46H266.517V1143.99H263.1V1147.52H259.683V1151.05H256.266V1154.58H252.85V1161.64H249.433V1165.17H246.016V1168.71H242.599V1172.24H239.182V1175.77H235.765V1179.3H232.348V1182.83H228.931V1186.36H225.515V1189.89H222.098V1193.42H218.681V1196.95H215.264V1200.48H211.847V1204.01H205.013V1211.08H198.179V1214.61H194.763V1218.14H191.346V1221.67H187.929V1225.2H184.512V1228.73H177.678V1232.26H174.261V1235.79H170.844V1239.32H164.011V1242.85H160.594V1246.38H153.76V1249.91H150.343V1253.45H143.509V1256.98H140.092V1260.51H133.259V1264.04H126.425V1267.57H123.008V1271.1H116.174V1274.63H109.34V1278.16H102.507V1281.69H95.6728V1285.22H88.8391V1288.75H82.0053V1292.28H75.1715V1295.81H64.9208V1299.35H58.0871V1302.88H47.8364V1306.41H37.5858V1309.94H27.3351V1313.47H17.0844V1317H3.41689V1313.47H6.83377V1309.94H13.6675V1306.41H20.5013V1302.88H27.3351V1299.35H30.752V1295.81H37.5858V1292.28H44.4195V1288.75H47.8364V1285.22H54.6702V1281.69H58.0871V1278.16H61.504V1274.63H68.3377V1271.1H71.7546V1267.57H78.5884V1264.04H82.0053V1260.51H85.4222V1256.98H88.8391V1253.45H95.6728V1246.38H102.507V1242.85H105.923V1239.32H109.34V1235.79H112.757V1232.26H116.174V1228.73H119.591V1225.2H123.008V1221.67H126.425V1218.14H129.842V1211.08H136.675V1204.01H140.092V1200.48H143.509V1196.95H146.926V1193.42H150.343V1189.89H153.76V1182.83H157.177V1179.3H160.594V1175.77H164.011V1168.71H167.427V1165.17H170.844V1161.64H174.261V1154.58H177.678V1151.05H181.095V1143.99H184.512V1140.46H187.929V1133.4H191.346V1126.34H194.763V1122.8H198.179V1115.74H201.596V1108.68H205.013V1105.15H208.43V1098.09H211.847V1091.03H215.264V1083.97H218.681V1076.9H222.098V1069.84H225.515V1059.25H228.931V1055.72H232.348V1045.13H235.765V1038.06H239.182V1027.47H242.599V1020.41H246.016V1009.82H249.433V999.225H252.85V988.633H256.266V978.04H259.683V963.917H263.1V953.324H266.517V939.201H269.934V921.547H273.351V900.362H276.768V879.177H280.185V847.399H283.602V808.56H287.018V713.228H283.602V674.389H280.185V649.673H276.768V624.957H273.351V603.772H269.934V589.649H266.517V571.995H263.1V561.402H259.683V550.81H256.266V540.217H252.85V526.094H249.433V519.032H246.016V504.909H242.599V497.847H239.182V490.786H235.765V483.724H232.348V473.131H228.931V466.07H225.515V455.477H222.098V448.416H218.681V441.354H215.264V437.823H211.847V430.761H208.43V423.7H205.013V416.638H201.596V409.576H198.179V406.046H194.763V398.984H191.346V391.922H187.929V388.391H184.512V381.33H181.095V377.799H177.678V370.737H174.261V367.206H170.844V360.145H167.427V356.614H164.011V349.552H160.594V346.021H157.177V342.491H153.76V338.96H150.343V331.898H146.926V328.367H143.509V324.837H140.092V321.306H136.675V314.244H129.842V307.182H123.008V300.121H116.174V293.059H109.34V285.997H102.507V278.936H95.6728V275.405H92.2559V271.874H88.8391V268.343H85.4222V264.812H78.5884V261.282H75.1715V257.751H71.7546V254.22H64.9208V250.689H61.504V247.158H54.6702V243.627H51.2533V240.097H44.4195V236.566H41.0026V233.035H34.1689V229.504H27.3351V225.973H20.5013V222.442H13.6675V218.912H10.2507V215.381H3.41689V211.85H0V208.319Z" fill="#38B6BC"/>
<path d="M403.192 0H410.026V3.53083H413.443V7.06166H420.277V10.5925H427.111V14.1233H430.527V17.6542H433.944V21.185H437.361V24.7158H444.195V28.2466H447.612V31.7775H451.029V35.3083H457.863V38.8391H461.279V42.37H464.696V45.9008H468.113V49.4316H471.53V52.9625H474.947V56.4933H478.364V60.0241H485.198V63.555H488.615V67.0858H492.031V70.6166H495.448V74.1475H498.865V77.6783H502.282V81.2091H505.699V84.7399H509.116V88.2708H512.533V91.8016H515.95V98.8633H519.367V102.394H522.783V105.925H526.2V109.456H529.617V112.987H533.034V116.517H536.451V120.048H539.868V123.579H543.285V127.11H546.702V134.172H550.119V137.702H553.535V141.233H556.952V144.764H560.369V148.295H563.786V155.357H567.203V158.887H570.62V162.418H574.037V169.48H577.454V173.011H580.87V176.542H584.287V180.072H587.704V187.134H591.121V190.665H594.538V197.727H597.955V201.257H601.372V208.319H604.789V215.381H608.206V218.912H611.622V225.973H615.039V229.504H618.456V236.566H621.873V243.627H625.29V247.158H628.707V254.22H632.124V261.282H635.541V268.343H638.958V275.405H642.374V278.936H645.791V285.997H649.208V293.059H652.625V303.651H656.042V310.713H659.459V317.775H662.876V328.367H666.293V335.429H669.71V342.491H673.126V349.552H676.543V360.145H679.96V370.737H683.377V374.268H686.794V384.861H690.211V391.922H693.628V402.515H697.045V409.576V413.107V416.638V430.761H700.462V441.354H703.878V448.416H707.295V459.008H710.712V469.601H714.129V480.193H717.546V490.786H720.963V501.378H724.38V508.44H727.797V515.501H731.213V526.094H734.63V533.155H738.047V540.217H741.464V547.279H744.881V557.871H748.298V564.933H751.715V571.995H755.132V579.056H758.549V586.118H761.965V593.18H765.382V600.241H768.799V607.303H772.216V614.365H775.633V617.895H779.05V624.957H782.467V632.019H785.884V635.55H789.301V642.611H792.717V649.673H796.134V653.204H799.551V656.735H802.968V663.796H806.385V667.327H809.802V674.389H813.219V677.92H816.636V681.45H820.053V688.512H823.469V692.043H826.886V695.574H830.303V699.105H833.72V702.635H837.137V709.697H840.554V713.228H843.971V716.759H847.388V720.29H850.805V723.82H854.221V730.882H857.638V734.413H861.055V737.944H864.472V741.475H867.889V745.005H871.306V748.536H874.723V752.067H878.14V755.598H881.557V759.129H888.39V762.66H891.807V766.19H895.224V769.721H898.641V773.252H902.058V776.783H905.475V780.314H908.892V783.845H912.308V787.375H919.142V790.906H922.559V794.437H925.976V797.968H929.393V801.499H932.81V805.029H936.227V808.56H943.06V812.091H946.477V815.622H953.311V819.153H956.728V822.684H963.562V826.214H966.979V829.745H973.812V833.276H977.229V836.807H984.063V840.338H987.48V843.869H994.314V847.399H997.731V850.93H1004.56V854.461H1011.4V857.992H1018.23V861.523H1021.65V865.054H1028.48V868.584H1035.32V872.115H1042.15V875.646H1045.57V879.177H1052.4V882.708H1059.23V886.239H1066.07V889.769H1072.9V893.3H1079.74V896.831H1086.57V900.362H1093.4V903.893H1100.24V907.424H1107.07V910.954H1113.9V914.485H1120.74V918.016H1127.57V921.547H1134.41V925.078H1141.24V928.609H1148.07V932.139H1154.91V935.67H1161.74V939.201H1168.57V942.732H1175.41V946.263H1178.83V949.794H1185.66V953.324H1192.49V956.855H1199.33V960.386H1202.74V963.917H1209.58V967.448H1216.41V970.979H1223.25V974.509H1226.66V978.04H1233.5V981.571H1236.91V985.102H1243.75V988.633H1247.16V992.164H1254V995.694H1257.41V999.225H1260.83V1002.76H1271.08V1006.29H1274.5V1009.82H1277.92V1013.35H1281.33V1016.88H1288.17V1020.41H1291.58V1023.94H1295V1031H1291.58V1027.47H1284.75V1023.94H1281.33V1020.41H1274.5V1016.88H1267.66V1013.35H1264.25V1009.82H1257.41V1006.29H1254V1002.76H1247.16V999.225H1240.33V995.694H1233.5V992.164H1226.66V988.633H1219.83V985.102H1212.99V981.571H1202.74V978.04H1195.91V974.509H1189.08V970.979H1178.83V967.448H1171.99V963.917H1161.74V960.386H1151.49V956.855H1141.24V953.324H1127.57V949.794H1137.82V946.263H1130.99V942.732H1117.32V939.201H1107.07V935.67H1100.24V932.139H1093.4V928.609H1083.15V925.078H1076.32V921.547H1069.49V918.016H1062.65V914.485H1055.82V910.954H1048.98V907.424H1042.15V903.893H1035.32V900.362H1031.9V896.831H1025.07V893.3H1018.23V889.769H1011.4V886.239H1004.56V882.708H997.731V879.177H990.897V875.646H984.063V872.115H980.646V868.584H973.812V865.054H970.396V861.523H963.562V857.992H956.728V854.461H949.894V850.93H946.477V847.399H943.06V843.869H936.227V840.338H929.393V836.807H925.976V833.276H922.559V829.745H915.725V826.214H908.892V822.684H905.475V819.153H902.058V815.622H895.224V812.091H891.807V808.56H888.39V805.029H881.557V801.499H878.14V797.968H871.306V794.437H867.889V790.906H864.472V787.375H861.055V783.845H857.638V780.314H854.221V776.783H850.805V773.252H847.388V769.721H843.971V766.19H837.137V762.66H833.72V759.129H830.303V752.067H823.469V745.005H820.053V741.475H816.636V737.944H813.219V734.413H809.802V730.882H806.385V727.351H802.968V723.82H799.551V720.29H796.134V716.759H792.717V709.697H789.301V706.166H785.884V702.635H782.467V699.105H779.05V692.043H775.633V688.512H772.216V681.45H768.799V677.92H765.382V670.858H761.965V667.327H758.549V660.265H755.132V656.735H751.715V653.204H748.298V646.142H744.881V639.08H741.464V635.55H738.047V628.488H734.63V624.957H731.213V617.895H727.797V610.834H724.38V603.772H720.963V600.241H717.546V593.18H714.129V586.118H710.712V579.056H707.295V571.995H703.878V561.402H700.462V557.871H697.045V547.279H693.628V540.217H690.211V529.625H686.794V522.563H683.377V515.501H679.96V504.909H676.543V497.847H673.126V483.724H669.71V473.131H666.293V462.539H662.876V451.946H659.459V441.354H656.042V430.761H652.625V416.638H649.208V406.046H645.791V398.984H642.374V384.861H638.958V374.268H635.541V367.206H632.124V360.145H628.707V349.552H625.29V338.96H621.873V328.367H618.456V321.306H615.039V310.713H611.622V303.651H608.206V293.059H604.789V285.997H601.372V275.405H597.955V268.343H594.538V261.282H591.121V254.22H587.704V247.158H584.287V240.097H580.87V233.035H577.454V225.973H574.037V222.442H570.62V215.381H567.203V208.319H563.786V201.257H560.369V197.727H556.952V190.665H553.535V183.603H550.119V180.072H546.702V173.011H543.285V165.949H539.868V162.418H536.451V155.357H533.034V151.826H529.617V148.295H526.2V141.233H522.783V137.702H519.367V130.641H515.95V127.11H512.533V123.579H509.116V120.048H505.699V112.987H502.282V109.456H498.865V105.925H495.448V98.8633H492.031V95.3324H488.615V91.8016H485.198V88.2708H481.781V81.2091H478.364V77.6783H474.947V74.1475H471.53V70.6166H468.113V67.0858H464.696V63.555H461.279V60.0241H457.863V52.9625H454.446V49.4316H451.029V45.9008H444.195V38.8391H440.778V35.3083H437.361V31.7775H433.944V28.2466H430.527V24.7158H427.111V21.185H423.694V17.6542H420.277V14.1233H416.86V10.5925H410.026V7.06166H406.609V3.53083H403.192V0Z" fill="#36B4BA"/>
</svg>
